<svg width="117" height="117" viewBox="0 0 117 117" fill="none" xmlns="http://www.w3.org/2000/svg">
<g clip-path="url(#clip0_6_37)">
<mask id="mask0_6_37" style="mask-type:luminance" maskUnits="userSpaceOnUse" x="0" y="0" width="117" height="117">
<path d="M0 0H117V117H0V0Z" fill="white"/>
</mask>
<g mask="url(#mask0_6_37)">
<path d="M88.9319 2.18204C85.9718 1.78424 81.5316 1.24604 81.3854 13.999C81.3269 19.3957 81.517 28.0332 88.4259 28.9633H88.4375C89.9176 29.1681 92.9069 29.4489 95.984 17.1493C97.739 10.1293 96.9317 3.22334 88.9319 2.18204ZM79.9346 35.8663C79.9346 33.3976 81.9353 31.3969 84.404 31.3969C87.2617 31.3969 91.6287 34.5442 91.6287 37.5102C91.6287 39.976 89.6251 41.9767 87.1535 41.9767C84.2987 41.9767 79.9346 38.8294 79.9346 35.8634V35.8663Z" fill="#00034A"/>
<path d="M88.9319 2.18204C85.9718 1.78424 81.5316 1.24604 81.3854 13.999C81.3269 19.3957 81.517 28.0332 88.4259 28.9633H88.4375C89.9176 29.1681 92.9069 29.4489 95.984 17.1493C97.739 10.1293 96.9317 3.22334 88.9319 2.18204ZM79.9346 35.8663C79.9346 33.3976 81.9353 31.3969 84.404 31.3969C87.2617 31.3969 91.6287 34.5442 91.6287 37.5102C91.6287 39.976 89.6251 41.9767 87.1535 41.9767C84.2987 41.9767 79.9346 38.8294 79.9346 35.8634V35.8663Z" stroke="#00034A" stroke-width="0.5" stroke-miterlimit="10"/>
<path d="M14.4554 41.9913C14.6894 43.5504 14.9527 45.1562 15.2159 46.6567C15.6352 49.3302 16.1383 51.988 16.7252 54.6303C8.18422 66.0173 0.412492 83.0993 1.69072 90.5873C2.57699 95.8464 7.08734 101.398 12.8437 101.489C15.6898 102.056 29.9257 99.9209 41.5146 97.9553C53.1034 95.9897 67.2838 93.3163 69.7584 91.8626C74.883 89.9555 74.9971 84.632 74.3419 80.73C73.0607 73.3298 60.1351 59.6613 48.3211 51.8018C47.99 49.1181 47.5999 46.4421 47.1511 43.7756L47.0545 43.2198C46.7123 41.2689 46.3467 39.1833 45.9547 37.2821C46.686 37.0773 47.388 36.8024 48.0607 36.4572C50.9097 35.3457 51.1086 32.1867 50.7108 29.8526C50.1433 26.5181 46.4637 22.6629 42.8923 22.5664C37.2821 22.5781 31.6895 23.1134 26.1788 24.1605C20.6369 24.9752 15.184 26.31 9.89242 28.1473C7.04639 29.2881 6.87382 32.4471 7.27454 34.7812C7.83029 38.0367 11.1063 41.4882 14.4554 41.9884V41.9913Z" fill="#00034A" stroke="#00034A" stroke-width="0.5" stroke-miterlimit="10"/>
<path d="M45.1708 49.9005C44.8407 47.2167 44.4506 44.5407 44.0008 41.8743C43.6323 39.7683 43.2345 37.4576 42.8074 35.3808C43.5344 35.1745 44.2397 34.8983 44.9134 34.556C47.7595 33.4445 47.9613 30.2855 47.5606 27.9513C47.1628 25.6143 46.0513 22.6571 42.8923 22.5693C37.2821 22.581 31.6895 23.1163 26.1788 24.1635C20.6369 24.9781 15.184 26.313 9.89242 28.1502C7.04639 29.291 6.87382 32.45 7.27454 34.7841C7.67234 37.1183 8.75459 40.0784 11.9136 40.1369C12.6741 40.209 13.4336 40.209 14.1922 40.1369C14.4759 42.2429 14.8474 44.5507 15.2159 46.6567C15.643 49.3038 16.1578 52.1791 16.7252 54.6303C8.18422 66.0173 0.412492 83.0993 1.69072 90.5873C2.34884 94.4863 4.22669 99.4968 9.69352 99.5846C12.5395 100.152 26.7755 98.0168 38.3644 96.0541C49.9532 94.0885 64.1336 91.4121 66.6111 89.9613C71.7357 88.0513 71.8468 82.7278 71.1946 78.8288C69.9134 71.4256 56.9849 57.7571 45.1708 49.9005Z" fill="white" stroke="#00034A" stroke-width="0.5" stroke-miterlimit="10"/>
<path d="M20.5423 66.2454C16.0992 72.4523 12.6272 79.9403 13.2503 83.5C13.6188 85.723 14.7596 88.569 18.2608 88.569C24.4506 88.23 30.6075 87.4401 36.6824 86.2056C42.8178 85.3529 48.887 84.0775 54.8467 82.3885C56.0868 81.9149 57.0975 80.983 57.6702 79.7855C58.2429 78.5879 58.3336 77.2161 57.9238 75.9535C57.3242 72.3967 51.5736 66.4473 45.3668 62.0305L20.5423 66.2454Z" fill="#9BFF00" stroke="#00034A" stroke-width="0.5" stroke-miterlimit="10"/>
<path d="M20.7383 39.4524C25.9949 38.9324 31.2091 38.0479 36.3432 36.8053M32.4441 46.0015C34.2303 45.8143 35.9951 45.5111 37.7384 45.0918M33.696 53.4339C35.4822 53.2584 37.247 52.9542 38.9903 52.5213" stroke="#00034A" stroke-width="0.5" stroke-miterlimit="10" stroke-linecap="round"/>
<path d="M39.1365 72.9933C39.8012 72.9929 40.4385 72.7286 40.9083 72.2583C41.3781 71.7881 41.6419 71.1506 41.6417 70.4859C41.6415 69.8212 41.3773 69.1837 40.9073 68.7138C40.4372 68.2439 39.7997 67.9799 39.135 67.9799C38.4703 67.9799 37.8328 68.2439 37.3627 68.7138C36.8927 69.1837 36.6285 69.8212 36.6283 70.4859C36.6281 71.1506 36.8919 71.7881 37.3617 72.2583C37.8315 72.7286 38.4688 72.9929 39.1335 72.9933H39.1365ZM30.0514 79.6272C30.3813 79.6399 30.7105 79.5873 31.02 79.4724C31.3296 79.3576 31.6134 79.1827 31.8551 78.9578C32.0969 78.7329 32.2918 78.4625 32.4288 78.1621C32.5657 77.8617 32.642 77.5371 32.6531 77.2072C32.6643 76.8772 32.6102 76.5483 32.4939 76.2393C32.3776 75.9303 32.2013 75.6473 31.9754 75.4066C31.7494 75.1659 31.4781 74.9722 31.177 74.8366C30.876 74.7011 30.5511 74.6263 30.2211 74.6167C29.5585 74.5973 28.9153 74.8411 28.4321 75.2948C27.9489 75.7485 27.665 76.3751 27.6426 77.0375C27.6201 77.6999 27.861 78.3443 28.3124 78.8296C28.7638 79.3149 29.3891 79.6017 30.0514 79.6272Z" fill="#00034A"/>
<path d="M84.6202 110.425C86.7204 112.323 88.9492 114.215 91.7923 114.879C94.4687 115.508 98.1981 115.28 99.3681 113.373C101.071 110.429 102.309 107.241 103.039 103.919C108.642 99.5851 112.479 93.3611 113.832 86.4075C118.123 68.1789 106.417 53.8084 89.1306 49.7046C69.9426 45.1474 57.8126 54.0336 53.7673 70.6885C51.8394 77.4845 52.4465 84.7495 55.4755 91.1313C54.66 94.4255 54.3348 97.8219 54.5103 101.211C54.7852 104.335 60.4831 107.459 63.0922 108.076C65.482 108.64 68.796 108.535 70.2819 107.087C72.3937 108.948 74.5524 110.822 77.3867 111.492C79.8028 112.063 83.146 111.925 84.6202 110.425Z" fill="#00034A" stroke="#00034A" stroke-width="0.5" stroke-linejoin="round"/>
<path d="M111.369 84.2985C115.298 67.6113 108.322 54.2587 89.1306 49.7016C69.9426 45.1473 57.8126 54.0306 53.7673 70.6884C51.8394 77.4844 52.4465 84.7495 55.4755 91.1313C54.66 94.4254 54.3348 97.8218 54.5103 101.211C54.7092 103.46 57.9823 105.338 60.6294 105.964C63.2794 106.59 67.0644 106.391 68.2344 104.455C68.4508 104.187 68.64 103.903 68.8018 103.601C68.7451 103.93 68.7451 104.266 68.8018 104.595C69.0007 106.877 72.2767 108.754 74.9239 109.38C77.571 110.006 81.3296 109.778 82.5259 107.845C82.7463 107.583 82.9267 107.299 83.0671 106.991C83.0671 107.338 83.1148 107.679 83.2104 108.014C83.4093 110.264 86.6531 112.142 89.3295 112.77C92.0059 113.399 95.7352 113.168 96.9052 111.261C98.6079 108.318 99.8461 105.129 100.576 101.808C106.179 97.4739 110.015 91.251 111.369 84.2985Z" fill="#9BFF00" stroke="#00034A" stroke-width="0.5" stroke-linejoin="round"/>
<path d="M70.9371 79.9402C73.1799 79.9402 75.3307 79.0493 76.9165 77.4634C78.5024 75.8776 79.3933 73.7267 79.3933 71.484C79.3933 69.2413 78.5024 67.0904 76.9165 65.5046C75.3307 63.9187 73.1799 63.0278 70.9371 63.0278C68.6944 63.0278 66.5436 63.9187 64.9577 65.5046C63.3719 67.0904 62.481 69.2413 62.481 71.484C62.481 73.7267 63.3719 75.8776 64.9577 77.4634C66.5436 79.0493 68.6944 79.9402 70.9371 79.9402ZM95.6212 85.7785C97.8639 85.7785 100.015 84.8876 101.601 83.3017C103.186 81.7159 104.077 79.565 104.077 77.3223C104.077 75.0796 103.186 72.9287 101.601 71.3429C100.015 69.757 97.8639 68.8661 95.6212 68.8661C93.3785 68.8661 91.2276 69.757 89.6418 71.3429C88.056 72.9287 87.165 75.0796 87.165 77.3223C87.165 79.565 88.056 81.7159 89.6418 83.3017C91.2276 84.8876 93.3785 85.7785 95.6212 85.7785Z" fill="white" stroke="#00034A" stroke-width="0.5" stroke-miterlimit="10"/>
<path d="M75.2926 89.8765C78.3112 86.2612 82.4413 87.2294 83.5235 91.8128M68.802 103.604L69.3431 101.293M83.1813 106.991L83.7517 104.683" stroke="#00034A" stroke-width="0.5" stroke-miterlimit="10" stroke-linecap="round"/>
<path d="M88.9319 2.18204C91.7779 2.55352 96.3058 3.20579 93.2316 15.5083C90.1575 27.808 87.1681 27.5242 85.6851 27.3253C84.2051 27.1235 81.245 26.755 81.3854 13.999C81.5316 1.24604 85.9718 1.78424 88.9319 2.18204ZM84.404 40.3357C85.5886 40.3357 86.7246 39.8652 87.5623 39.0275C88.3999 38.1899 88.8704 37.0538 88.8704 35.8693C88.8704 34.6847 88.3999 33.5486 87.5623 32.711C86.7246 31.8734 85.5886 31.4028 84.404 31.4028C83.2194 31.4028 82.0833 31.8734 81.2457 32.711C80.4081 33.5486 79.9375 34.6847 79.9375 35.8693C79.9375 37.0538 80.4081 38.1899 81.2457 39.0275C82.0833 39.8652 83.2194 40.3357 84.404 40.3357Z" fill="#9BFF00" stroke="#00034A" stroke-width="0.5" stroke-miterlimit="10"/>
<path d="M62.8787 11.3782L62.6652 11.4367C60.3661 12.051 57.1983 12.8992 60.3456 22.1715C61.4571 25.4533 64.8618 33.6024 69.7641 32.643L69.7875 32.64C70.9575 32.4119 73.318 31.8123 72.3206 21.8468C71.8175 16.807 69.0329 10.0883 62.8787 11.3782ZM65.441 38.5983C65.441 36.6502 67.0205 35.0678 68.9715 35.0678C71.253 35.0678 75.2544 37.8699 75.2544 40.2421C75.2544 42.1902 73.6749 43.7726 71.7239 43.7726C69.4424 43.7726 65.441 40.9704 65.441 38.5983Z" fill="#00034A"/>
<path d="M62.8787 11.3782L62.6652 11.4367C60.3661 12.051 57.1983 12.8992 60.3456 22.1715C61.4571 25.4533 64.8618 33.6024 69.7641 32.643L69.7875 32.64C70.9575 32.4119 73.318 31.8123 72.3206 21.8468C71.8175 16.807 69.0329 10.0883 62.8787 11.3782ZM65.441 38.5983C65.441 36.6502 67.0205 35.0678 68.9715 35.0678C71.253 35.0678 75.2544 37.8699 75.2544 40.2421C75.2544 42.1902 73.6749 43.7726 71.7239 43.7726C69.4424 43.7726 65.441 40.9704 65.441 38.5983Z" stroke="#00034A" stroke-width="0.5" stroke-miterlimit="10"/>
<path d="M62.8788 11.3783C65.1866 10.8956 68.5737 10.2404 69.5712 20.2059C70.5686 30.1714 68.2052 30.7681 67.0381 30.9992C65.8681 31.2244 63.5925 31.7363 60.3457 22.1715C57.099 12.6068 60.5739 12.0071 62.8788 11.3783ZM68.9715 42.1288C69.9075 42.1288 70.8051 41.757 71.4669 41.0952C72.1287 40.4334 72.5005 39.5357 72.5005 38.5998C72.5005 37.6638 72.1287 36.7662 71.4669 36.1044C70.8051 35.4426 69.9075 35.0708 68.9715 35.0708C68.0356 35.0708 67.138 35.4426 66.4761 36.1044C65.8143 36.7662 65.4425 37.6638 65.4425 38.5998C65.4425 39.5357 65.8143 40.4334 66.4761 41.0952C67.138 41.757 68.0356 42.1288 68.9715 42.1288Z" fill="#9BFF00" stroke="#00034A" stroke-width="0.5" stroke-miterlimit="10"/>
</g>
</g>
<defs>
<clipPath id="clip0_6_37">
<rect width="117" height="117" fill="white"/>
</clipPath>
</defs>
</svg>
